<svg width="24" height="24" viewBox="0 0 24 24" fill="none" xmlns="http://www.w3.org/2000/svg">
<mask id="path-1-inside-1" fill="white">
<path fill-rule="evenodd" clip-rule="evenodd" d="M2 5C2 4.44772 2.44772 4 3 4H16C16.5523 4 17 4.44772 17 5V8H21C21.5523 8 22 8.44772 22 9V19C22 19.5523 21.5523 20 21 20H8C7.44772 20 7 19.5523 7 19V16H3C2.44772 16 2 15.5523 2 15V5ZM15 10H9V14H15V10Z"/>
</mask>
<path fill-rule="evenodd" clip-rule="evenodd" d="M2 5C2 4.44772 2.44772 4 3 4H16C16.5523 4 17 4.44772 17 5V8H21C21.5523 8 22 8.44772 22 9V19C22 19.5523 21.5523 20 21 20H8C7.44772 20 7 19.5523 7 19V16H3C2.44772 16 2 15.5523 2 15V5ZM15 10H9V14H15V10Z" fill="#83EE50"/>
<path d="M17 8H15V10H17V8ZM7 16H9V14H7V16ZM9 10V8H7V10H9ZM15 10H17V8H15V10ZM9 14H7V16H9V14ZM15 14V16H17V14H15ZM3 2C1.34315 2 0 3.34314 0 5H4C4 5.55229 3.55228 6 3 6V2ZM16 2H3V6H16V2ZM19 5C19 3.34315 17.6569 2 16 2V6C15.4477 6 15 5.55228 15 5H19ZM19 8V5H15V8H19ZM21 6H17V10H21V6ZM24 9C24 7.34315 22.6569 6 21 6V10C20.4477 10 20 9.55229 20 9H24ZM24 19V9H20V19H24ZM21 22C22.6569 22 24 20.6569 24 19H20C20 18.4477 20.4477 18 21 18V22ZM8 22H21V18H8V22ZM5 19C5 20.6569 6.34315 22 8 22V18C8.55229 18 9 18.4477 9 19H5ZM5 16V19H9V16H5ZM3 18H7V14H3V18ZM0 15C0 16.6569 1.34314 18 3 18V14C3.55229 14 4 14.4477 4 15H0ZM0 5V15H4V5H0ZM9 12H15V8H9V12ZM11 14V10H7V14H11ZM15 12H9V16H15V12ZM13 10V14H17V10H13Z" fill="#83EE50" mask="url(#path-1-inside-1)"/>
</svg>
